PathFileType	4	(X/Y/Z)	RBDS019static.trc
DataRate	CameraRate	NumFrames	NumMarkers	Units	OrigDataRate	OrigDataStartFrame	OrigNumFrames
150.000000	150.000000	4	48	mm	150.000000	112	150
Frame#	Time	L.Ankle			L.Ankle.Medial			L.ASIS			L.GTR			L.Heel.Bottom			L.Heel.Lateral			L.Heel.Top			L.HF			L.Iliac.Crest			L.Knee			L.Knee.Medial			L.MT1			L.MT2			L.MT5			L.PSIS			L.Shank.Bottom.Lateral			L.Shank.Bottom.Medial			L.Shank.Top.Lateral			L.Shank.Top.Medial			L.Thigh.Bottom.Lateral			L.Thigh.Bottom.Medial			L.Thigh.Top.Lateral			L.Thigh.Top.Medial			L.TT			R.Ankle			R.Ankle.Medial			R.ASIS			R.GTR			R.Heel.Bottom			R.Heel.Lateral			R.Heel.Top			R.HF			R.Iliac.Crest			R.Knee			R.Knee.Medial			R.MT1			R.MT2			R.MT5			R.PSIS			R.Shank.Bottom.Lateral			R.Shank.Bottom.Medial			R.Shank.Top.Lateral			R.Shank.Top.Medial			R.Thigh.Bottom.Lateral			R.Thigh.Bottom.Medial			R.Thigh.Top.Lateral			R.Thigh.Top.Medial			R.TT			
		X1	Y1	Z1	X2	Y2	Z2	X3	Y3	Z3	X4	Y4	Z4	X5	Y5	Z5	X6	Y6	Z6	X7	Y7	Z7	X8	Y8	Z8	X9	Y9	Z9	X10	Y10	Z10	X11	Y11	Z11	X12	Y12	Z12	X13	Y13	Z13	X14	Y14	Z14	X15	Y15	Z15	X16	Y16	Z16	X17	Y17	Z17	X18	Y18	Z18	X19	Y19	Z19	X20	Y20	Z20	X21	Y21	Z21	X22	Y22	Z22	X23	Y23	Z23	X24	Y24	Z24	X25	Y25	Z25	X26	Y26	Z26	X27	Y27	Z27	X28	Y28	Z28	X29	Y29	Z29	X30	Y30	Z30	X31	Y31	Z31	X32	Y32	Z32	X33	Y33	Z33	X34	Y34	Z34	X35	Y35	Z35	X36	Y36	Z36	X37	Y37	Z37	X38	Y38	Z38	X39	Y39	Z39	X40	Y40	Z40	X41	Y41	Z41	X42	Y42	Z42	X43	Y43	Z43	X44	Y44	Z44	X45	Y45	Z45	X46	Y46	Z46	X47	Y47	Z47	X48	Y48	Z48	

113	0.7466666666666667	710.4153442382813	94.53431701660156	1046.6455078125	717.8236694335938	101.8849639892578	1126.738525390625	832.2926025390625	971.1593627929688	1113.4775390625	769.2516479492188	890.8928833007813	1050.6435546875	635.2291259765625	36.34291076660156	1081.815063476563	666.7819213867188	56.33512878417969	1040.557983398438	643.6638793945313	84.26238250732422	1083.030151367188	720.5568237304688	441.791015625	1036.323364257813	773.0606689453125	1024.85498046875	1072.076293945313	725.2625732421875	500.4347229003906	1043.062133789063	706.5674438476563	481.1958312988281	1165.53125	836.6480102539063	54.21047210693359	1127.606811523438	845.7876586914063	67.44278717041016	1084.461303710938	812.5147094726563	48.30301666259766	1020.960510253906	657.2892456054688	994.6395263671875	1165.868286132813	699.9698486328125	176.6798706054688	1037.02978515625	660.9952392578125	172.4324493408203	1069.859497070313	687.0155639648438	255.757080078125	1026.046752929688	648.4219360351563	255.755615234375	1062.0927734375	725.8834228515625	613.1170654296875	1035.90673828125	662.8692626953125	620.887939453125	1073.400268554688	736.1406860351563	722.3792114257813	1032.984497070313	676.5841064453125	729.362548828125	1069.808837890625	769.8109130859375	425.9204711914063	1089.873901367188	706.338623046875	99.01841735839844	1406.997680664063	723.6724243164063	109.3348236083984	1327.540405273438	814.8851928710938	972.818603515625	1349.852661132813	743.13525390625	898.488037109375	1400.556640625	634.58251953125	40.03150177001953	1368.166259765625	661.9175415039063	57.35671615600586	1407.298706054688	644.1407470703125	84.97486877441406	1365.888793945313	715.0859985351563	451.3455505371094	1404.19775390625	757.6566772460938	1036.27880859375	1367.144287109375	718.1470947265625	511.7361450195313	1396.87841796875	722.891357421875	484.7830505371094	1273.855224609375	832.3779907226563	58.73150634765625	1328.440185546875	846.6005859375	69.90202331542969	1370.986450195313	805.7081298828125	47.60666275024414	1434.533935546875	653.41796875	1003.856384277344	1267.445190429688	698.1083374023438	171.0411529541016	1411.770263671875	659.1953125	168.6764068603516	1371.92919921875	683.7942504882813	250.654296875	1419.692993164063	647.35400390625	247.8502197265625	1379.520263671875	706.5348510742188	607.3392944335938	1404.283081054688	656.0763549804688	610.2919921875	1353.398315429688	707.877197265625	717.7319946289063	1408.609130859375	657.26611328125	720.0526123046875	1362.624267578125	768.46240234375	429.8316955566406	1352.332763671875	
114	0.7533333333333334	710.413818359375	94.53440093994141	1046.644653320313	717.8267822265625	101.8837661743164	1126.73095703125	832.3143310546875	971.171875	1113.47314453125	769.2569580078125	890.8934936523438	1050.6357421875	635.2296142578125	36.34244537353516	1081.818359375	666.7817993164063	56.33176040649414	1040.564208984375	643.669189453125	84.26194000244141	1083.0234375	720.5604248046875	441.820068359375	1036.356079101563	773.0716552734375	1024.8505859375	1072.079345703125	725.2734375	500.4315185546875	1043.062133789063	706.5792236328125	481.1896667480469	1165.522216796875	836.6491088867188	54.20542907714844	1127.6083984375	845.7778930664063	67.4449462890625	1084.465209960938	812.5233764648438	48.31887817382813	1020.960144042969	657.3059692382813	994.6414184570313	1165.869018554688	699.961669921875	176.6772003173828	1037.0302734375	661.0067138671875	172.4256896972656	1069.861572265625	687.0188598632813	255.7624816894531	1026.057006835938	648.415771484375	255.7606811523438	1062.100341796875	725.906005859375	613.1119384765625	1035.911376953125	662.876708984375	620.8884887695313	1073.408935546875	736.1484375	722.38330078125	1032.989135742188	676.5940551757813	729.3606567382813	1069.811401367188	769.8170776367188	425.9081420898438	1089.8720703125	706.3490600585938	99.01723480224609	1407.008666992188	723.682373046875	109.3405151367188	1327.539916992188	814.8984375	972.81982421875	1349.852661132813	743.1580810546875	898.4979248046875	1400.560791015625	634.5900268554688	40.02244186401367	1368.167358398438	661.920654296875	57.35369873046875	1407.314697265625	644.1484985351563	84.97068023681641	1365.884887695313	715.1008911132813	451.3492431640625	1404.184936523438	757.6709594726563	1036.282104492188	1367.147094726563	718.1544799804688	511.732666015625	1396.867797851563	722.889404296875	484.79052734375	1273.851684570313	832.3792724609375	58.73284149169922	1328.448364257813	846.6050415039063	69.8983154296875	1370.997314453125	805.7020263671875	47.60880279541016	1434.525756835938	653.4382934570313	1003.850402832031	1267.442504882813	698.1095581054688	171.0335540771484	1411.760009765625	659.2109375	168.6820983886719	1371.934326171875	683.7979736328125	250.6589813232422	1419.69140625	647.3585205078125	247.8488922119141	1379.51904296875	706.5440063476563	607.3472900390625	1404.276123046875	656.0916137695313	610.2937622070313	1353.410766601563	707.8980102539063	717.7259521484375	1408.61328125	657.285888671875	720.0548706054688	1362.62548828125	768.4688110351563	429.8362731933594	1352.334106445313	
115	0.76	710.41748046875	94.54176330566406	1046.64453125	717.8224487304688	101.8809356689453	1126.735595703125	832.3289184570313	971.1720581054688	1113.478515625	769.267822265625	890.8984375	1050.647827148438	635.2274169921875	36.34308242797852	1081.822509765625	666.782470703125	56.33660888671875	1040.564331054688	643.6682739257813	84.2548828125	1083.012084960938	720.5633544921875	441.8229370117188	1036.350708007813	773.0761108398438	1024.839965820313	1072.075317382813	725.2715454101563	500.4346008300781	1043.065673828125	706.5955200195313	481.1912841796875	1165.519287109375	836.65283203125	54.20712280273438	1127.6123046875	845.7864379882813	67.45497894287109	1084.465454101563	812.5308227539063	48.32178115844727	1020.960510253906	657.3173828125	994.64453125	1165.867797851563	699.9652099609375	176.6755523681641	1037.024291992188	661.0015258789063	172.4366149902344	1069.861694335938	687.0242919921875	255.7656402587891	1026.052978515625	648.4247436523438	255.7607421875	1062.095825195313	725.9093627929688	613.1212158203125	1035.91455078125	662.8858642578125	620.8928833007813	1073.408569335938	736.164794921875	722.3804321289063	1032.999145507813	676.61083984375	729.3704223632813	1069.8154296875	769.8168334960938	425.9171142578125	1089.874877929688	706.3429565429688	99.01397705078125	1406.994262695313	723.69091796875	109.3492889404297	1327.539916992188	814.91357421875	972.81494140625	1349.856079101563	743.1723022460938	898.50634765625	1400.55712890625	634.5819702148438	40.03263854980469	1368.166015625	661.9210205078125	57.36144256591797	1407.299072265625	644.1497192382813	84.98049926757813	1365.886962890625	715.1006469726563	451.3519287109375	1404.19970703125	757.68798828125	1036.283447265625	1367.15185546875	718.1609497070313	511.7381591796875	1396.878051757813	722.90869140625	484.7950744628906	1273.863891601563	832.3870849609375	58.74120330810547	1328.442260742188	846.6175537109375	69.89658355712891	1370.982543945313	805.7108764648438	47.61204147338867	1434.532348632813	653.4502563476563	1003.855163574219	1267.451049804688	698.1197509765625	171.037353515625	1411.772094726563	659.205078125	168.6829528808594	1371.935913085938	683.804443359375	250.6678314208984	1419.695922851563	647.3627319335938	247.843017578125	1379.525512695313	706.55419921875	607.35205078125	1404.28271484375	656.1016235351563	610.3068237304688	1353.411865234375	707.908203125	717.7330932617188	1408.611083984375	657.3023681640625	720.05029296875	1362.629028320313	768.4724731445313	429.8275146484375	1352.336181640625	
116	0.7666666666666667	710.4153442382813	94.54350280761719	1046.651245117188	717.8214721679688	101.8903732299805	1126.739990234375	832.3389892578125	971.173095703125	1113.480346679688	769.2669677734375	890.8934326171875	1050.6474609375	635.226318359375	36.33812713623047	1081.818969726563	666.7762451171875	56.33772277832031	1040.553833007813	643.6748046875	84.26689147949219	1083.020263671875	720.5729370117188	441.8239440917969	1036.368286132813	773.0916748046875	1024.84130859375	1072.071411132813	725.286376953125	500.4356994628906	1043.064453125	706.6009521484375	481.1999816894531	1165.52734375	836.654541015625	54.20637130737305	1127.614379882813	845.78515625	67.45293426513672	1084.455810546875	812.529296875	48.3145637512207	1020.956115722656	657.3367309570313	994.637939453125	1165.868530273438	699.9603271484375	176.6791076660156	1037.026611328125	661.00537109375	172.4352569580078	1069.85205078125	687.0158081054688	255.7669830322266	1026.05908203125	648.4276123046875	255.7632446289063	1062.09716796875	725.9074096679688	613.116455078125	1035.928833007813	662.8973388671875	620.8939208984375	1073.411499023438	736.1676025390625	722.3832397460938	1033.001220703125	676.6212768554688	729.3670043945313	1069.832763671875	769.819580078125	425.9206237792969	1089.869506835938	706.3411865234375	99.01495361328125	1407.0078125	723.6863403320313	109.3431701660156	1327.53857421875	814.9284057617188	972.814453125	1349.85498046875	743.185546875	898.5009765625	1400.559448242188	634.5860595703125	40.04329681396484	1368.181640625	661.9306030273438	57.35455703735352	1407.304321289063	644.1452026367188	84.98054504394531	1365.88671875	715.1082153320313	451.3446350097656	1404.197631835938	757.7009887695313	1036.282104492188	1367.151489257813	718.1829833984375	511.748779296875	1396.878051757813	722.9137573242188	484.8014526367188	1273.861083984375	832.3922729492188	58.73835372924805	1328.447021484375	846.6131591796875	69.89387512207031	1371.002685546875	805.7099609375	47.60883331298828	1434.526000976563	653.4642333984375	1003.851257324219	1267.450561523438	698.1170654296875	171.0384368896484	1411.769409179688	659.2067260742188	168.6858520507813	1371.93896484375	683.8125	250.6640472412109	1419.689086914063	647.366455078125	247.8489685058594	1379.525634765625	706.5668334960938	607.3447265625	1404.277954101563	656.1050415039063	610.3054809570313	1353.419189453125	707.92236328125	717.7350463867188	1408.615600585938	657.3148193359375	720.0575561523438	1362.624877929688	768.4784545898438	429.8367614746094	1352.331787109375	
